<svg xmlns="http://www.w3.org/2000/svg" xml:space="preserve" viewBox="270 133.96 559.81 723.31">
  <path d="M479 681c8-11 18-21 31-25 5-2 9-4 14-3l5-1c15-5 38 5 43 23 1 4 2 8 0 13-1 2-1 4 1 6s4 1 6 0c10-5 19-12 30-16 5-2 7-8 11-12-3-2-5-3-9-3-10 0-22-10-24-21-5-17 0-31 9-45 6-9 15-13 24-17 11-4 20-4 30 1 3 1 6 3 8 7l5 5c4-4 7-28 5-40-3-2-6-2-10-1-9 2-17 0-23-6-9-8-13-18-14-30-1-9-1-17 2-25 2-6 4-11 10-14 9-5 9-6 6-16-5-15-6-30-4-45 3-16 9-31 26-39 22-10 42 3 43 26 1 17-6 31-19 43-4 4-10 5-16 8l5 11c13 23 22 47 26 73 7 41-3 80-25 115-23 35-54 59-92 75-26 12-54 18-82 25-16 5-32 11-46 22-6 6-11 13-13 21-9 24-24 42-46 52a87 87 0 0 1-126-74c0-15 2-29 8-43 7-14 18-26 31-35 9-6 17-10 28-12 5 0 8-4 8-9l-1-25c-1-8 0-17 1-26l-1-57v-35c0-16-2-32-1-48v-52c2-12 1-13-10-16-29-9-49-27-58-57-5-13-5-27-4-40 2-14 6-27 15-38 10-14 24-26 40-33l15-3c8-3 16-1 25-2 8 0 16 2 23 5a89 89 0 0 1 0 166l-9 2c-8 1-9 6-9 12v150l3 29c3 0 6-2 9-4 13-10 28-16 44-20l34-5c10 0 21 0 32-2 10-1 20-2 30-7 13-7 21-17 25-30 5-14 7-28 7-43v-50a217 217 0 0 1 39-101c13-18 28-34 45-49 5-4 5-6 2-12-5-10-8-20-11-31l-1-25c0-8 3-15 5-23 5-22 19-37 35-51 8-8 19-11 29-15s20-5 30-5a99 99 0 0 1 100 81c6 34-3 63-26 89a97 97 0 0 1-71 32c-22 1-42-5-59-18-4-3-7-2-10 1-20 18-38 37-52 59s-21 45-24 71l-1 51c0 17-1 34-7 50a83 83 0 0 1-67 56c-16 3-33 3-49 4-23 2-46 8-65 23a56 56 0 0 0-24 41c0 7 1 9 8 10 28 7 47 25 57 51 4 8 6 8 12 3 8-6 17-11 27-11l8-5a35 35 0 0 1-6-41m307-484a69 69 0 0 0-120 65c10 24 30 38 55 43 9 1 18 0 27-3 15-4 28-12 37-26 10-15 17-32 12-52-2-9-5-19-11-27M350 387c13 3 24 0 35-5 25-13 37-47 25-73a58 58 0 0 0-62-34c-27 4-50 32-46 64 3 23 23 46 48 48m-3 325-3 1c-22 7-36 21-41 43-5 21 1 39 17 54 9 8 18 13 29 15 8 0 16 0 24-2a54 54 0 0 0 40-61c-2-13-7-24-16-34a55 55 0 0 0-50-16m177-5c8-2 16-4 21-11 7-8 3-18-6-21h-15c-10 3-18 7-23 16-3 7 1 16 8 17 4 1 9 2 15-1m115-103c-3-3-7-4-11-2-12 4-21 18-20 30 1 5 5 10 9 11 7 0 14-2 18-9 3-3 5-8 6-12 3-6 2-12-2-18m7-81 5 5c4 3 9 3 11 1 4-4 6-8 4-13-1-7-3-13-6-18-2-4-4-7-9-6-4 0-6 4-7 7-3 8-2 16 2 24m32-124c-4-3-7-1-10 1-7 4-11 18-8 26 1 3 4 4 7 3 11-3 17-20 11-30z"/>
</svg>