<svg xmlns="http://www.w3.org/2000/svg" id="Layer_2" viewBox="0 0 1024 1024">
  <defs>
    <style>
      .cls-2,.cls-4,.cls-5,.cls-8{fill:none;stroke:#000;stroke-miterlimit:10}.cls-2,.cls-4{stroke-width:38px}.cls-2,.cls-5,.cls-8{stroke-linecap:round}.cls-5{stroke-width:27px}.cls-8{stroke-width:29px}
    </style>
  </defs>
  <path d="M615.12 330.12c0 80.47-40.77 151.42-102.78 193.31-37.21 25.14-82.06 39.81-130.34 39.81-128.75 0-233.12-104.37-233.12-233.12S253.25 97 382 97s233.12 104.37 233.12 233.12Z" style="stroke-width:49px;fill:none;stroke:#000;stroke-miterlimit:10"/>
  <path d="m766.38 884.5-21-28.34-242.13-326.89" style="stroke-width:49px;stroke-linecap:round;fill:none;stroke:#000;stroke-miterlimit:10"/>
  <path d="M743.88 250.75s-66.45-18.84-42.1-82.16c6.43-16.71 19.59-29.86 36.29-36.31 43.9-16.94 135.77-15.13 141.28 149.84" class="cls-2"/>
  <ellipse cx="749.45" cy="471.12" class="cls-8" rx="43.13" ry="32.76" transform="rotate(-53.37 749.44 471.125)"/>
  <ellipse cx="691.85" cy="548.6" class="cls-8" rx="43.13" ry="32.76" transform="rotate(-63.68 691.896 548.603)"/>
  <ellipse cx="810.77" cy="397.74" rx="36.98" ry="27.83" style="stroke-width:31px;stroke-linecap:round;fill:none;stroke:#000;stroke-miterlimit:10" transform="rotate(-53.37 810.763 397.736)"/>
  <path d="M841.62 309.76c-2.28 14.28 2.01 27.54 10.1 34.2 1.35 1.11 10.49-.69 19.67-5.15s18.41-11.58 19.93-21.1c3.05-19.04-5.61-36.26-19.33-38.46-13.72-2.19-27.32 11.47-30.36 30.51Z" class="cls-8"/>
  <path d="M838.11 373.74c20.81-30.35 19.91-34.94 19.91-34.94" style="fill:none;stroke:#000;stroke-miterlimit:10;stroke-width:41px"/>
  <path d="m788.71 427.41-13.53 9.1M723.72 505.73l-6.32 8.77" class="cls-5"/>
  <path d="M664.58 580.86s-39.39 30.31-49.45 38.31" class="cls-4"/>
  <path d="M744.24 196.06s67.61-20.44 44.47 77.33c0 0-44.15 114.08-124.13 143.11" class="cls-2"/>
  <ellipse cx="502.37" cy="733.79" class="cls-4" rx="40.5" ry="19.16" transform="rotate(-53.37 502.356 733.787)"/>
  <path d="m563.08 665.35-38.66 33.8" class="cls-4"/>
  <path d="M478.2 766.29s-61.97 65.32-78.86 144.43-30.22 86.22-30.22 86.22M382.46 613.83s-132.03 79.69-148.54 200.98c-3.12 22.95-10.26 45.17-21.65 65.34-13.77 24.4-34.67 55.9-62.7 83.02" class="cls-2"/>
</svg>
