<svg xmlns="http://www.w3.org/2000/svg" xml:space="preserve" viewBox="111.02 162.13 805.27 667.04">
  <path d="M282 774c-42-11-80-29-111-60-20-21-36-44-45-72a259 259 0 0 1-12-126l7-31c5-17 12-33 25-47s30-15 46-7c14 8 27 16 42 22 9 4 18 6 28 8 13 4 27 5 41 4 10-1 20-1 30-4l13-2 6-4-5-5c-23-17-40-39-50-65a155 155 0 0 1-10-78 152 152 0 0 1 15-52 163 163 0 0 1 164-92c14 2 28 5 41 10a153 153 0 0 1 102 114c2 10 5 13 15 14l21 2h24l13-3c7-2 14-3 21 0 10 5 16 17 15 28-5 31-24 53-49 70a168 168 0 0 1-71 28l-1 1c0 2 2 3 3 4 15 15 28 33 41 50 4 4 7 5 12 4 19-7 36-3 52 7l96 61 81 52c7 4 15 8 21 15 19 21 19 57-9 76l-79 52-112 71a58 58 0 0 1-74-7c-9-9-15-21-17-35l-1-25v-5c2-4 1-9-1-13l-13 9a349 349 0 0 1-138 40 746 746 0 0 1-177-9m129-23 25-2c12-1 23 0 35-2a270 270 0 0 0 87-22c15-6 28-15 41-26 7-6 14-12 13-22l1-19V539c0-9 1-17 5-25 2-4 1-7-1-10l-24-29c-10-13-22-25-35-36-7-5-10-13-11-21 0-8 4-16 8-22a138 138 0 0 0 25-79 121 121 0 0 0-73-107 130 130 0 0 0-174 59c-11 19-13 40-13 62 1 35 14 63 40 86 10 9 23 15 35 22 11 6 14 18 6 28-2 4-6 7-10 9-5 4-11 6-17 9a221 221 0 0 1-171-8l-23-13c-8-4-9-4-15 3-6 9-10 19-13 29a230 230 0 0 0 3 125c14 46 42 80 85 101a279 279 0 0 0 99 26c24 1 48 4 72 3m427-134-14-9-117-74c-9-5-17-12-26-16-16-7-32 2-35 19l-1 9v225c3 22 15 27 34 22 7-1 12-6 17-10l64-41 73-47c14-9 29-18 42-28 11-8 10-19 0-26l-37-24M635 379c16-7 28-19 39-31 3-3 6-7 5-12l-7 1-27 1-24-4c-6-2-8-1-9 6l-5 27-8 21 8 1 28-10z"/>
  <path d="M465 286c12-13 32-11 43 0 10 10 10 30-1 41s-31 11-42 1c-12-11-11-31 0-42z"/>
</svg>