<svg xmlns="http://www.w3.org/2000/svg" xml:space="preserve" viewBox="123 130 779.8 767.15">
  <path d="M572 896h-87l-134-1H151c-13 0-22-6-27-18l-1-8V247c0-12 11-23 23-24 17-2 34-1 51-1 8 0 8 0 8-8l1-53c0-19 14-31 32-31h356c9 1 15 5 21 10 18 16 35 34 52 51l88 89c11 10 16 22 15 37v54c0 4-1 6-4 8l-19 11h-3c-2-2-1-4-1-6v-60c0-7 0-7-7-7h-63c-4 0-8 1-12-1h-2c-14 3-28 2-42 0-21-2-36-21-36-43l1-73v-31c2-7-2-10-9-10H264l-21-1-8 1-1 8v597c0 14 0 14 14 14h307c5 0 10 2 14-1 1-2 0-4-1-5a243 243 0 0 1-35-144 191 191 0 0 1 57-126c16-16 33-31 52-44 28-18 57-34 87-48 4-2 9-2 13-5 15-9 31-17 46-28s27-24 30-42c5-25 4-43-19-62l-4-3c-4-4-8-9-5-15 2-6 8-10 16-10 15 0 30 4 43 12 31 18 50 45 53 80 4 37-7 71-31 100-18 23-41 41-66 58-21 13-43 27-63 42-17 14-33 29-43 49a90 90 0 0 0 5 93c9 15 21 28 33 39l5 3c2-2 3-5 3-9l-1-41v-17c-1-13-2-26-1-38 0-7 3-15 1-22-2-8-1-17-1-25-1-4 1-7 3-9l17-15c2-2 3-4 6-4 2 2 1 5 1 7v190c0 4 1 7 4 10 19 20 34 41 42 68 6 23 7 47-1 70-3 8-9 12-16 11-9-1-14-9-12-18 4-11 5-23 4-35-2-23-10-43-24-60-8-9-15-18-25-26v11c0 29-26 46-52 34-18-8-31-22-35-41-3-18 9-42 32-41l12-1-1-2c-8-8-14-17-22-27l-6 5c-20 15-40 12-54-8a59 59 0 0 1-7-60c8-21 30-23 47-16l5 2 5-23h-10c-16-3-25-15-24-32 1-22 12-38 32-47 15-7 30-8 43 5l6 7c7-2 11-7 16-12-4-6-9-11-10-19-1-10 2-20 9-27 10-10 22-17 37-17 12 0 20 4 26 13 2 5 5 4 8 2 17-13 34-25 48-42 18-22 27-47 26-76-1-21-8-38-22-52-2-2-3-4-6-4-1 5 2 10 2 15 4 27-2 51-19 73s-40 36-65 49c-33 16-66 32-97 51-18 11-35 24-50 38-28 27-47 59-53 98-6 44 2 85 20 124 10 23 24 44 37 65 8 14 17 29 23 45 2 8 4 15 3 23 0 13-11 24-24 24l-50 1M205 285v-28c0-3-1-5-4-5h-47c-4 0-5 2-5 5v19l1 490-1 93c0 6 0 7 7 7h457l5-1-2-8-23-43c-3-5-6-6-11-6H241c-21 0-36-13-36-36V419l1-88-1-46m404-56v42c0 12 5 17 17 18l6 1h73c4 0 7-1 10 1 3 0 5 0 7-2L609 177v52m39 451c6-1 10-3 12-9 5-11-1-28-11-35-8-6-16-3-20 6-3 11-1 26 10 34 3 2 5 4 9 4m34 68c-2 3-3 6-3 10 2 13 20 25 32 23 3-1 5-2 6-5 1-9-1-18-8-25-8-7-19-9-27-3m-2-186 10-9c3-5 4-10 1-15-3-4-6-6-11-5-10 1-22 11-24 21-2 8 2 13 10 12 4-1 9-1 14-4m67-67 3 1c7-4 14-7 19-12 2-2 4-4 3-7s-4-4-7-5c-7 0-12 3-17 7-7 4-7 9-1 16z"/>
</svg>