<svg xmlns="http://www.w3.org/2000/svg" width="1365.3" height="1365.3" version="1.0" viewBox="0 0 1024 1024">
  <path d="M482 71c-51 14-121 64-164 118-31 38-47 72-54 113-2 10-2 16-2 34 0 19 0 23 2 35a188 188 0 0 0 40 85l9 10-9 4-19 10c-12 9-32 29-43 43-13 19-27 50-36 80-2 7-4 10-5 10-2 0-14-12-18-18-8-12-11-28-9-42s6-24 19-44c14-21 21-36 25-54 2-7 2-11 2-23a71 71 0 0 0-50-73c-9-3-26-3-34 0-14 4-27 13-29 22-3 6-2 10 0 15 2 3 3 5 7 7 5 2 6 2 17 1 13 0 18 1 23 6 6 5 7 9 7 20 0 8 0 11-3 16-3 8-10 19-21 31-19 21-28 34-35 50-15 33-13 70 5 106a164 164 0 0 0 79 74l6 2v9a162 162 0 0 0 15 57l-7 1c-10 1-22 5-32 10-8 3-11 6-18 13s-10 10-13 17c-9 19-9 41-1 59 5 9 15 20 24 24 10 5 20 7 28 5 11-2 15-6 15-14 0-6-2-9-10-12l-7-6c-9-9-3-22 11-26 8-3 15-2 29 0 28 6 45 5 62-2 5-2 8-3 10-1v6l-2 14c0 12 0 13 14 20 56 28 129 43 206 42 44-1 71-5 108-14 36-9 80-27 87-36 2-3 3-11 0-24l-1-10 7-4 8-2 6 3a98 98 0 0 0 90-6c21-11 28-14 35-15h11c5 1 11 7 14 15 5 11 14 14 22 8 7-4 10-12 11-24 0-10-1-18-7-29-7-14-19-24-35-28-13-3-23-3-50 4-21 6-30 7-30 6l3-9 3-8 8-4a174 174 0 0 0 111-132c2-13 2-37 0-48-7-36-23-60-60-93a39 39 0 0 1-14-21l12-2c19-2 36-8 49-16 9-6 20-17 25-25 12-18 19-46 16-67-3-22-10-33-21-33-5 0-10 2-14 8-8 11-13 14-23 16-6 1-19 0-21-1l4-6c9-10 14-22 14-37 0-30-24-54-55-54-19 0-35 8-44 22-5 7-6 10-7 18l-2 7-11 1c-12 0-15 1-18 7-6 13 11 34 30 37l5 1-4 3-10 9a65 65 0 0 0-1 83l4 5-1 5c-2 7-1 16 1 27 3 15 10 28 28 51 23 31 30 48 30 69a71 71 0 0 1-29 59l-1-2c0-7-7-36-14-55-18-55-49-94-91-115l-8-3 7-9c38-47 53-105 40-162-10-47-35-90-76-132-15-16-26-26-44-39-32-24-62-42-89-51-9-3-12-3-22-4-10 0-13 0-21 2zm37 15a323 323 0 0 1 97 58c13 10 44 41 54 54 36 46 56 98 54 144-4 67-39 120-106 158-16 10-46 23-49 22l5-4 20-15c55-42 83-82 90-124 2-12 1-34-1-45-10-42-41-77-90-102a200 200 0 0 0-207 12c-41 27-64 57-70 95-2 11-2 32 0 43 7 44 40 86 101 130l9 8c-3 0-23-8-36-15-41-21-74-50-93-84-22-39-28-87-15-135 14-54 54-108 116-153 31-24 62-41 89-49 10-3 17-2 32 2zm-2 137c33 4 71 19 100 40 7 5 26 23 26 24l-6 1c-17 2-38 9-53 18-28 16-48 46-53 80-1 13-1 20 2 24 2 4 13 9 22 12 10 2 33 2 44-1a95 95 0 0 0 69-81l1-6 2 9c4 33-5 62-28 94-23 31-79 76-128 103l-14 8-12-6c-36-17-86-55-117-87s-45-62-45-98l3-28 1 8c2 23 15 49 33 64 26 21 57 28 86 19 15-5 19-9 19-21 0-21-8-46-21-63-6-8-19-20-27-26-15-10-36-18-55-21l-11-2 9-8a208 208 0 0 1 153-56zm325 30c17 5 27 18 29 36 1 16-8 33-24 44-4 2-6 5-6 5 0 2 12 6 24 9 7 2 11 2 19 2 9 0 10-1 17-4 8-4 15-10 19-17 3-6 6-5 9 3 8 19 3 52-11 73-4 5-13 15-19 19-9 6-24 12-38 15-13 2-38 1-49-2-13-3-24-9-32-16a44 44 0 0 1-14-35c0-20 8-34 25-45 6-4 7-6 7-9 0-2 1-3 3-4l7-4c3-3 3-5 4-9 0-7-2-11-11-16-8-6-10-10-10-17 1-13 12-24 26-29 6-2 18-1 25 1zm-56 48 8 7 5 4c1 2 1 2-2 4-5 2-15 2-23-1-6-3-15-10-15-14 0-2 2-3 12-3l9-1 6 4zm-420 2 8 1-2 8c-2 8-3 24-1 33 3 17 14 32 28 39 5 2 7 3 15 2 7 0 9 0 13-2 8-4 13-8 16-16l4-7 1 3c5 8 10 29 9 36 0 3-1 4-4 5-11 5-35 6-49 2a85 85 0 0 1-60-85c0-22 0-23 8-22l14 3zm289 4c2 9 1 31-2 41l-7 18c-5 9-6 12-15 21-9 8-12 10-20 14-12 6-19 8-33 9-11 0-24-2-31-5-3-1-3-2-4-7l1-11c1-7 7-26 8-26l2 3c0 4 7 13 12 17 12 9 29 8 42-3 10-8 18-22 20-35 2-9 1-27-1-34l-1-5 24-4c3 0 3 1 5 7zm-490 65c20 5 36 20 40 41 2 8 2 27 1 36-4 15-11 32-24 53-11 16-12 20-16 29-9 23-8 49 4 68 5 9 15 19 23 24 6 4 6 5 6 7a311 311 0 0 0-8 64 145 145 0 0 1-83-101c-2-11-2-29 0-39 4-22 13-38 37-65 23-26 28-35 30-52 1-10 0-19-4-28-3-7-9-12-17-16-5-2-6-3-20-3-15 0-15 0-16-2-1-5 11-14 23-17h24zm637 76 16 3 10 2c1 0 2 1 3 5 3 13 7 19 31 40 21 19 35 44 41 71 2 12 2 35 0 47a167 167 0 0 1-100 118v-6c2-11 2-41 1-56l-2-14 4-3c8-7 20-20 24-28 12-20 16-45 10-67a145 145 0 0 0-31-55c-13-17-18-27-22-37s-6-23-4-26c1-2 1-2 6 1l13 5zm-471 35c32 27 63 43 119 61 10 3 26 8 34 12l16 7 15-7 29-11c31-10 44-14 56-20 26-11 49-26 68-42l8-7 9 5c16 8 29 16 42 29 20 21 34 44 45 78 20 59 25 116 13 159-15 53-58 84-118 84a320 320 0 0 1-146-42 868 868 0 0 1 72-39c14-7 15-8 21-4l17 10c17 10 21 12 29 13 9 0 14-2 19-10 2-4 4-6 5-5 4 1 12-2 16-6 6-5 8-11 8-20l1-8 4-3c11-10 8-32-6-47-6-7-17-15-26-18-6-3-7-4-7-6l-13-81c-1-4-6-6-10-4-3 2-3 4 0 23 5 29 10 60 9 61l-7-1a162 162 0 0 0-84 12l-9 4 4-7 41-83-1-4c-1-2-48-3-52-1-2 0-7 10-23 43l-23 41-21-40-22-43c-2-1-5-2-27-2l-27 1c-4 4-4 4 19 48l28 55 14 27-9 3-10 2-9-10a200 200 0 0 0-96-69c-4-1-4-1-4-4a650 650 0 0 0 8-54c-2-4-10-4-12 0l-8 51v3h-14c-11 0-15 0-23 2-21 5-39 19-43 34-1 5 2 11 6 15l4 3-3 4c-8 12-6 27 6 33 3 2 4 3 3 4l-1 7c-1 11 9 20 22 19l24-9a175 175 0 0 1 129-16c24 5 42 15 56 29 11 11 21 28 20 32-1 3-47 25-66 32-43 17-77 25-110 27a119 119 0 0 1-132-103c-8-46 1-108 24-160a164 164 0 0 1 91-94l8 7zm147 142c25 49 25 50 30 47 3-1 5-5 30-54l20-39 15-1h14l-7 13-23 45-15 31-30 11c-27 10-30 11-31 9l-12-23a6441 6441 0 0 0-43-85l14-1h14l24 47zm-149 7c33 5 60 21 89 51l12 13-12-1a185 185 0 0 0-112 20c-19 10-25 11-27 7s1-10 7-16c7-5 19-11 29-14l21-1h13c2-2 3-6 1-8-6-5-31-6-44-2-9 3-18 7-26 13-8 5-11 5-13 0-3-5-1-10 5-16 7-7 14-11 26-15 8-3 10-3 22-3h18c4 1 5 1 7-1 3-2 2-6-3-9-16-8-43-5-65 7-6 4-10 4-13 1v-5c3-8 21-19 35-21 11-2 19-2 30 0zm317 25c17 2 38 10 47 18 10 8 16 22 13 29l-2 4-3-4c-8-12-25-22-29-17-2 3-1 6 6 11 15 13 21 31 13 39-4 5-9 4-14-5-9-16-27-29-34-25-5 3-4 6 3 11 13 9 24 23 23 30-1 5-4 8-7 8-5 0-10-2-26-13s-23-14-28-14l-13 4-57 31c-8 4-11 5-11 2l-5-12c-6-11-14-22-24-30a114 114 0 0 0-26-16l13-5a4185 4185 0 0 0 103-39c25-7 40-9 58-7zm222 116c9 2 15 5 21 11 6 7 10 14 11 24 2 8 0 17-3 20-2 1-2 1-5-5-7-13-16-19-30-20-8 0-10 0-17 2l-18 8c-14 8-28 15-37 17-14 4-33 3-50-2l8-6c11-8 24-20 31-31 6-8 6-8 10-8 7 0 19-2 33-6 25-6 36-7 46-5zm-649 21a148 148 0 0 0 51 41l-19 2-19-4c-14-3-28-4-36-2-18 5-28 16-28 32 0 11 6 20 16 25l4 3h-7c-15-2-28-11-34-25-2-5-2-8-3-17 0-10 0-12 2-19 6-17 20-30 40-37l28-5 5 6zm304 12c36 18 74 31 110 37 11 1 43 2 58 1h6l1 10 2 12c-1 3-28 15-54 24a531 531 0 0 1-216 15c-40-6-87-20-114-35-5-3-5-3-6-7l1-10 2-6 19-1 29-1a437 437 0 0 0 143-48l19 9z"/>
  <path d="M816 277c-3 4-4 8-1 13 5 11 23 5 20-7-1-5-6-9-11-9-3 0-5 1-8 3zm7 99c-2 3-2 4 0 10 3 6 9 12 15 15s7 4 19 4 13-1 18-3c10-5 18-14 20-22 1-4 0-4-5 1-6 4-17 10-25 11h-12c-11-2-17-6-25-16l-3-3-2 2z"/>
</svg>
