<svg version="1.1" id="Layer_1" xmlns="http://www.w3.org/2000/svg" xmlns:xlink="http://www.w3.org/1999/xlink" x="0px" y="0px"
	 width="100%" viewBox="0 0 1024 1024" enable-background="new 0 0 1024 1024" xml:space="preserve">
<path fill="#000000" opacity="1.000000" stroke="none" 
	d="
M756.521973,183.370972 
	C761.117188,183.825577 764.349548,185.907623 767.383667,188.735092 
	C788.570190,208.478378 809.214172,228.777054 829.816467,249.124771 
	C836.980835,256.200653 842.343689,264.358276 845.441833,273.755127 
	C847.870850,281.122314 845.772522,288.483917 842.981201,295.572723 
	C840.066467,302.974854 834.643799,308.718750 830.378784,315.227020 
	C826.021729,321.875732 821.236755,328.238068 817.998962,335.601166 
	C814.706238,343.089111 816.073669,350.188446 818.939087,357.322083 
	C825.995728,374.889923 833.053528,392.457306 840.075745,410.038849 
	C842.952637,417.241638 848.533508,421.176331 855.575317,423.806213 
	C862.992493,426.576233 871.164612,426.484955 878.330627,430.119568 
	C879.099976,430.509766 880.262451,430.227661 881.226318,430.116577 
	C898.121887,428.169098 916.839539,440.250519 920.375916,457.743744 
	C921.613831,463.867249 922.131531,469.885254 922.128662,476.050385 
	C922.115784,503.546509 922.248108,531.043213 922.110779,558.538574 
	C922.030762,574.572876 908.824463,592.016907 890.654724,594.262878 
	C879.893311,595.593140 869.142029,597.754456 858.692871,600.648926 
	C848.533752,603.463013 841.846497,610.575378 838.130920,620.724243 
	C831.973633,637.542236 825.252014,654.152832 818.946106,670.917786 
	C817.621765,674.438721 816.904846,678.218018 816.188599,681.932312 
	C814.198425,692.252075 822.465820,697.661987 827.172119,704.856079 
	C833.318054,714.250671 840.668213,722.908386 844.451294,733.784912 
	C848.732910,746.094604 845.540649,757.344666 837.766113,766.371216 
	C827.051758,778.810974 814.561035,789.704651 803.112000,801.532349 
	C792.575012,812.417847 780.747375,821.945618 770.543091,833.187195 
	C765.653137,838.574219 759.120667,840.775940 751.855103,842.431641 
	C738.686157,845.432495 728.388550,840.774719 718.077148,833.683777 
	C709.448792,827.750366 700.275635,822.605042 691.305420,817.173950 
	C684.070862,812.793640 676.163452,812.616821 668.799500,815.779663 
	C648.974609,824.294434 629.168457,832.885071 609.937622,842.728027 
	C603.856812,845.840454 601.818054,851.542542 600.511047,857.266357 
	C597.940796,868.521606 596.384216,880.004272 594.039185,891.316284 
	C591.490417,903.610962 581.177246,918.202576 565.631409,920.401917 
	C550.843872,922.493774 536.280762,919.526611 521.578430,920.303162 
	C510.313080,920.898315 499.011047,921.195435 487.732147,921.615112 
	C473.112335,922.159119 457.833801,923.013672 445.466309,912.616394 
	C439.591461,907.677307 435.438965,901.577454 433.856628,893.544800 
	C432.310791,885.697510 431.355927,877.778076 429.959778,870.014038 
	C428.534088,862.085938 427.431915,853.107910 421.243866,846.610901 
	C415.348877,840.421509 407.610077,837.335022 399.912201,834.099060 
	C387.505066,828.883362 374.823975,824.222839 362.987091,817.771179 
	C351.317657,811.410889 340.680237,813.981995 330.085388,820.304443 
	C318.283661,827.346924 307.600159,836.500061 294.443268,840.978088 
	C281.859558,845.260986 269.526154,844.177917 258.803589,835.389160 
	C245.906799,824.818359 234.719467,812.541260 223.543091,800.200989 
	C215.095261,790.873352 205.751694,782.349182 196.689056,773.589172 
	C190.881592,767.975647 185.785873,761.910828 183.249847,754.109070 
	C181.054886,747.356567 181.282944,740.710205 183.435623,733.810608 
	C186.243820,724.809753 191.176956,717.449707 196.966064,710.079468 
	C201.391357,704.445618 205.056107,697.948242 209.026825,691.815552 
	C212.784912,686.011292 210.796341,680.087219 209.363113,674.287415 
	C207.482773,666.678284 203.608887,659.800049 200.754730,652.542969 
	C195.661163,639.591980 190.594330,626.630371 185.540909,613.663696 
	C182.537445,605.957031 176.409332,602.157043 168.811508,600.174133 
	C157.902985,597.327209 146.644852,596.193054 135.695099,593.754333 
	C123.800514,591.105103 113.492393,584.800232 108.753586,572.856689 
	C105.830750,565.490051 104.153137,557.458191 104.087761,549.430969 
	C103.884178,524.436401 103.437798,499.419891 104.282295,474.452362 
	C104.624565,464.333374 104.487625,453.304901 112.297813,444.881744 
	C118.781456,437.889221 125.454086,431.198425 136.194016,432.204193 
	C141.353317,427.594666 148.130905,430.999634 154.102127,428.547516 
	C158.359848,426.799011 163.734558,426.369873 168.569580,425.136139 
	C179.843811,422.259277 186.121475,414.274658 190.562378,404.149231 
	C195.072937,393.864990 197.644608,382.928741 201.657364,372.478882 
	C204.558563,364.923676 207.396667,357.299347 209.508392,349.501495 
	C210.930954,344.248444 210.854828,338.637665 208.193466,333.512146 
	C203.260193,324.011139 196.750320,315.546631 190.409882,306.995026 
	C183.564163,297.761963 180.814758,287.449951 181.833771,276.163361 
	C182.781296,265.668793 189.083282,257.999298 195.873383,250.551163 
	C215.300842,229.240891 237.343582,210.600632 257.461914,189.995239 
	C261.440430,185.920410 266.174683,182.940598 272.612732,184.321167 
	C275.744934,184.992828 278.212463,181.832123 281.556000,181.671097 
	C291.242645,181.204559 299.151184,185.388489 307.088409,190.178711 
	C318.735077,197.207672 329.941376,205.011612 342.448334,210.578476 
	C348.066467,213.079117 353.486267,211.410522 358.114532,208.989990 
	C370.595886,202.462433 383.467072,196.913239 396.438477,191.493225 
	C403.766388,188.431320 410.910370,184.833115 417.842834,180.950821 
	C423.563782,177.746994 425.431854,171.586838 427.697662,165.857681 
	C430.064636,159.872696 430.499908,153.359299 431.776611,147.210693 
	C432.963440,141.494614 432.145477,135.120346 433.930481,129.152283 
	C437.582703,116.941376 446.010864,109.144394 457.261902,104.199783 
	C460.664368,102.704468 464.634735,105.080032 468.466827,103.463211 
	C475.404785,100.535973 482.862335,101.860161 490.109344,101.817856 
	C509.938385,101.702118 529.768555,101.741028 549.598083,101.786484 
	C553.355408,101.795097 557.338806,100.992813 560.515015,104.046562 
	C560.821777,104.341469 561.507263,104.515259 561.912537,104.394623 
	C570.139221,101.945709 575.612183,107.568390 581.172852,111.626770 
	C587.040527,115.909225 589.845032,122.673141 592.301086,129.517334 
	C595.041382,137.153595 594.184631,145.228729 595.939880,153.003616 
	C597.328552,159.154800 598.481812,165.363922 600.539001,171.318970 
	C602.712158,177.609848 607.908691,181.052795 613.655762,183.591064 
	C632.808838,192.050247 651.998718,200.426773 671.221130,208.727066 
	C674.090576,209.966080 677.173462,210.775635 680.222290,211.518677 
	C684.654663,212.598892 688.465576,211.546204 692.244446,208.677643 
	C703.756714,199.938553 715.854553,191.716446 728.850769,185.712067 
	C736.863220,182.010193 746.635315,179.414154 756.521973,183.370972 
M631.692505,793.962952 
	C641.088013,791.476013 649.001343,785.368958 658.775269,783.329895 
	C661.693726,782.721069 665.212708,783.665833 667.970154,781.547363 
	C670.317139,779.744324 673.190125,779.446533 676.075500,779.664978 
	C681.442200,780.071289 686.759155,780.679199 692.088623,781.539612 
	C701.270996,783.021973 708.508118,787.472107 716.026367,791.817871 
	C723.079773,795.895020 729.727539,800.667480 736.703674,804.886169 
	C743.883179,809.227661 748.098572,808.564087 754.202148,803.002625 
	C757.785156,799.737854 760.691650,795.851562 764.108093,792.481628 
	C777.274292,779.494324 790.404663,766.447632 804.093384,754.023560 
	C810.499939,748.208923 810.241272,742.703735 805.898621,735.746521 
	C797.597290,722.447266 786.197937,711.234192 783.075256,694.436951 
	C780.924500,682.867737 781.771484,672.125427 785.082703,661.776306 
	C791.385193,642.078247 799.712952,623.063538 807.727234,603.973999 
	C815.716431,584.944397 828.787720,571.572266 848.996216,565.416687 
	C852.907593,564.225220 856.894592,564.758362 860.462769,563.448242 
	C866.121460,561.370361 871.769775,559.834839 877.799438,559.730835 
	C883.921021,559.625244 885.684509,557.906616 885.698608,551.605347 
	C885.758057,525.106812 885.692566,498.607880 885.822449,472.109833 
	C885.841248,468.267517 884.345398,465.983063 880.738892,465.305878 
	C874.409851,464.117401 868.068665,462.756653 861.670471,462.244843 
	C856.158630,461.803986 850.765747,460.703461 845.732727,458.909821 
	C828.334595,452.709503 814.817078,441.286957 807.949646,424.158478 
	C798.796204,401.328766 789.158020,378.626404 783.266174,354.553680 
	C780.174744,341.922546 781.571655,329.863403 786.179504,318.415527 
	C790.263184,308.270142 797.231750,299.455658 804.322327,291.062683 
	C811.452209,282.623230 811.519958,279.780701 803.617981,271.788879 
	C786.996826,254.978561 770.423889,238.120331 753.868408,221.245239 
	C751.752197,219.088104 749.399780,218.124039 746.328186,218.101822 
	C739.674744,218.053711 734.556580,221.632874 729.619690,225.189972 
	C718.167419,233.441406 706.938660,241.881348 692.739624,245.108246 
	C684.953186,246.877823 677.009949,246.978409 669.468201,245.578354 
	C660.720276,243.954376 652.570618,239.757782 644.528137,235.761353 
	C629.053406,228.071594 613.323486,220.955688 597.325012,214.408798 
	C580.425476,207.493225 569.153931,195.773163 565.589050,177.208511 
	C564.785278,173.022705 564.635071,168.650345 563.399597,164.706390 
	C561.711243,159.317032 559.937927,154.112213 559.985168,148.373367 
	C560.046875,140.871811 557.517151,138.407104 549.684021,138.344696 
	C532.355347,138.206604 515.025269,138.248611 497.696625,138.110046 
	C490.020325,138.048676 482.418182,138.303101 474.862335,139.951187 
	C469.475281,141.126205 466.696655,143.280502 466.372620,148.768997 
	C465.824280,158.056335 463.742279,167.075943 462.406677,176.221069 
	C460.241730,191.044342 452.078949,201.432037 440.191528,209.416168 
	C431.314423,215.378418 421.102325,218.698227 411.434814,223.068649 
	C391.892151,231.903366 373.399139,243.304703 351.668671,246.839233 
	C345.136200,247.901764 338.955841,246.937256 333.071594,245.211319 
	C316.811127,240.441895 304.217102,229.007233 290.224060,220.143372 
	C288.337891,218.948578 286.808472,218.245743 284.576508,218.010712 
	C278.528381,217.373810 275.111969,221.321274 271.346100,224.803360 
	C254.713547,240.182663 240.007889,257.493622 223.239227,272.743011 
	C216.506561,278.865662 216.249420,283.815216 221.591003,291.141876 
	C226.683167,298.126373 231.932785,304.974274 236.563614,312.320374 
	C247.874695,330.263702 247.623322,348.870941 240.802002,368.065247 
	C238.695847,373.991699 236.273987,379.809784 234.288818,385.774689 
	C229.114288,401.322693 224.285080,416.986450 216.298645,431.434998 
	C209.633499,443.493164 199.059998,450.710327 186.980392,456.551636 
	C174.637039,462.520508 161.078430,462.868988 148.115021,465.892792 
	C143.431137,466.985321 142.156296,469.101959 142.165833,473.352448 
	C142.224182,499.351074 142.164337,525.349915 142.192444,551.348633 
	C142.199036,557.433716 144.078049,559.428711 150.157547,559.728638 
	C161.046158,560.265808 171.451538,563.291504 181.501511,566.959717 
	C199.981323,573.704773 212.663879,587.000305 220.009293,605.118042 
	C227.434387,623.432373 234.411850,641.929260 241.492050,660.381958 
	C248.248688,677.991455 247.277588,695.306580 237.826782,711.570618 
	C233.433502,719.131104 227.352325,725.710510 222.039749,732.737305 
	C215.379639,741.546387 216.045944,747.602600 224.382523,754.580322 
	C225.913773,755.862000 227.355896,757.257263 228.774460,758.665283 
	C242.254837,772.045532 255.748657,785.412415 269.170319,798.851379 
	C272.148438,801.833252 275.438812,804.380554 279.129913,806.296753 
	C283.240448,808.430786 287.312134,809.057861 290.674896,804.589478 
	C291.745819,803.166443 293.298157,801.945862 294.878235,801.091125 
	C308.141449,793.916016 319.985229,783.960571 335.323730,780.834167 
	C343.108826,779.247314 350.714691,779.321472 358.491821,780.888367 
	C367.043091,782.611267 374.788818,786.193420 382.677338,789.698059 
	C395.724823,795.494690 409.031769,800.709351 422.250427,806.117798 
	C432.705841,810.395691 442.169067,816.048950 449.475037,824.908569 
	C454.409943,830.892944 458.179962,837.526062 460.049347,845.016968 
	C462.452515,854.646973 463.487946,864.515625 464.386414,874.403198 
	C465.134766,882.638306 470.410400,888.571533 477.085205,888.604614 
	C500.249603,888.719421 523.415710,888.698547 546.579834,888.533447 
	C553.825623,888.481812 560.052063,884.618958 561.262756,878.985962 
	C562.222290,874.521606 562.930115,869.912048 563.501648,865.401672 
	C563.981201,861.617065 566.034058,857.920044 565.776184,854.697571 
	C565.385071,849.811401 567.211670,845.473328 568.432495,841.543335 
	C573.323181,825.799255 583.360474,813.980042 599.263184,807.980347 
	C610.053040,803.909668 620.651306,799.402832 631.692505,793.962952 
z"/>
<path fill="#000000" opacity="1.000000" stroke="none" 
	d="
M528.551208,646.141968 
	C518.431824,646.164917 508.770966,646.099854 499.110992,646.166931 
	C494.067261,646.201904 489.351166,644.412659 484.440125,643.679688 
	C465.840149,640.903381 449.253632,632.403564 434.224884,621.833801 
	C410.251007,604.972961 391.730286,583.228943 381.822723,555.010498 
	C379.847778,549.385437 379.082794,543.400879 377.487457,537.896301 
	C375.602386,531.392151 376.440033,524.842224 374.707336,518.325562 
	C372.430420,509.762329 371.712402,499.933319 376.219391,491.085510 
	C376.952087,489.647064 376.443207,488.139618 376.141815,486.681458 
	C375.836212,485.202759 375.225067,483.502472 376.085327,482.284058 
	C379.331299,477.686951 378.141632,472.135132 379.516083,467.101440 
	C384.865479,447.509979 393.514526,429.923615 407.936035,415.489136 
	C412.972351,410.448303 417.504913,404.983887 422.833466,400.134827 
	C432.993011,390.889526 444.513977,383.884369 456.455200,377.632294 
	C466.529114,372.357880 477.194977,368.848877 488.883148,367.203674 
	C502.075043,365.346802 515.108643,365.970123 528.150330,366.082062 
	C539.583618,366.180115 550.413330,370.518799 561.212158,374.420441 
	C581.053955,381.589417 597.605835,393.777649 612.439697,408.164948 
	C624.011108,419.387939 633.358398,432.490845 640.544373,447.230225 
	C645.452148,457.296906 649.493774,467.583252 651.578674,478.395844 
	C652.782776,484.640564 653.872681,491.122314 654.067200,497.578613 
	C654.462585,510.700500 654.524902,523.858215 652.090271,536.806458 
	C650.156616,547.090393 646.402344,556.942017 641.396545,566.045715 
	C632.398926,582.409058 622.076538,597.931519 608.068542,610.619202 
	C595.851440,621.684814 581.838684,629.772217 566.661072,636.074463 
	C556.362305,640.350891 546.004089,644.025818 534.692749,644.359009 
	C532.783020,644.415222 530.903503,645.499512 528.551208,646.141968 
M462.796295,599.718323 
	C463.565247,600.033752 464.346741,600.321899 465.101196,600.668823 
	C476.296021,605.815674 487.225006,611.755310 500.036621,611.950195 
	C501.305176,611.969543 502.756866,612.404236 503.787323,613.126160 
	C506.212616,614.825195 508.770996,614.393250 511.452057,614.388306 
	C517.179016,614.377686 522.558411,611.419617 528.110901,611.932495 
	C533.505371,612.430786 538.364990,610.536926 542.928162,609.082031 
	C554.562195,605.372437 565.744385,600.258240 575.672424,592.801086 
	C589.140442,582.685059 600.411011,570.812500 608.370911,555.731628 
	C613.707031,545.621704 617.674438,535.072693 619.243530,523.933960 
	C620.108887,517.790955 622.146423,511.898285 622.394226,505.529449 
	C622.563965,501.170135 620.222900,497.948120 620.059326,494.100922 
	C619.649170,484.455627 616.157776,475.619324 612.683350,466.912231 
	C605.175964,448.098389 592.867432,432.998322 576.611206,420.722626 
	C560.265442,408.379364 541.885925,402.184967 521.889282,400.211273 
	C504.898346,398.534210 488.736725,401.871185 472.873505,408.307495 
	C458.198212,414.261780 445.452728,423.047882 434.939545,434.306335 
	C425.938293,443.945679 419.101318,455.620880 414.180206,468.142792 
	C411.681885,474.499786 410.855713,481.205017 409.435181,487.808838 
	C407.975006,494.596832 405.722565,501.187500 406.123199,508.274933 
	C406.675812,518.051697 407.690247,527.957825 410.754578,537.098633 
	C419.858429,564.255127 436.579651,585.590149 462.796295,599.718323 
z"/>
<path fill="#000000" opacity="1.000000" stroke="none" 
	d="
M520.850830,354.134583 
	C509.191925,354.532532 497.891907,354.329498 487.533081,349.967712 
	C468.382996,341.904236 454.231750,328.204193 448.568237,307.940613 
	C446.229126,299.571503 443.272156,290.145508 446.099854,281.455811 
	C448.495392,274.094086 446.273590,265.914337 451.098511,259.163849 
	C455.540985,252.948441 458.838318,245.750259 463.983002,240.238419 
	C472.315704,231.311005 482.555786,224.108109 494.774567,222.222488 
	C502.079498,221.095169 509.360535,218.082718 517.081726,219.628555 
	C519.505066,220.113724 522.065491,219.796326 524.127380,221.633057 
	C524.693237,222.137100 525.633789,222.546097 526.364319,222.491364 
	C539.271240,221.524521 548.699829,228.842178 557.781860,236.240921 
	C568.803406,245.219803 576.422913,257.138000 579.175842,270.865509 
	C580.859558,279.261749 582.667053,287.983551 580.632324,297.320953 
	C578.596191,306.664459 576.267090,315.480621 571.761108,323.934418 
	C564.828918,336.940277 553.331970,344.270905 540.534424,349.878906 
	C534.548035,352.502197 528.019409,354.013214 520.850830,354.134583 
M549.277100,302.631805 
	C549.956848,300.581573 550.570557,298.506500 551.329224,296.485870 
	C553.389038,290.999298 552.945740,284.714874 551.347656,280.048889 
	C548.798096,272.604980 543.660400,266.088501 538.229004,259.829651 
	C527.576843,247.554428 513.911560,248.645966 500.891876,251.000336 
	C489.215729,253.111740 481.287231,262.756531 476.844635,273.293762 
	C468.644684,292.743011 478.098969,311.011871 494.320618,321.384766 
	C504.970947,328.195099 516.575073,325.949310 527.527039,322.518463 
	C537.211182,319.484772 543.711243,311.864136 549.277100,302.631805 
z"/>
<path fill="#000000" opacity="1.000000" stroke="none" 
	d="
M623.428467,391.684143 
	C611.042114,383.102386 602.728882,371.715729 597.087402,358.328064 
	C594.509094,352.209564 592.532715,345.907562 594.321533,339.016876 
	C595.304321,335.231049 593.450500,331.502258 593.302368,327.668915 
	C592.881775,316.785492 597.627502,307.479828 602.682495,298.644836 
	C609.272217,287.127380 618.281555,277.328125 631.354431,273.035492 
	C639.233948,270.448090 646.736694,265.982208 656.002930,268.219086 
	C660.255066,269.245575 665.069214,266.728516 670.059448,267.464508 
	C683.424988,269.435760 694.976440,274.003601 704.864319,283.838623 
	C713.551514,292.479309 721.318726,301.462494 724.670471,313.260651 
	C727.790405,324.242523 729.004333,335.316589 726.928711,347.074097 
	C724.071960,363.255951 715.620972,375.501160 704.254517,386.335052 
	C696.376831,393.843781 686.543945,397.254333 676.248901,400.513428 
	C664.686218,404.173767 653.852173,400.409393 642.766174,399.842102 
	C635.925049,399.492004 629.581238,395.753357 623.428467,391.684143 
M644.067078,299.370361 
	C643.210510,299.884918 642.348877,300.391205 641.498108,300.915283 
	C625.528442,310.752075 615.989685,327.600098 624.621582,348.844879 
	C629.502502,360.857544 638.919617,368.671936 651.814087,371.546417 
	C655.157654,372.291809 657.881104,376.226807 661.509216,374.318451 
	C666.673950,371.601868 672.753845,372.100311 677.804321,368.873718 
	C680.124146,367.391693 681.902832,365.347534 684.516663,364.047760 
	C692.925537,359.866211 696.499207,351.613678 697.612793,343.093719 
	C698.491333,336.371887 698.156860,329.257660 695.824951,322.408630 
	C691.972168,311.092865 684.562012,302.391357 673.779541,298.797546 
	C664.704651,295.772858 654.426941,297.157471 644.067078,299.370361 
z"/>
<path fill="#000000" opacity="1.000000" stroke="none" 
	d="
M796.954895,488.776062 
	C790.816406,509.742310 777.224121,524.026489 757.789795,531.499634 
	C747.336548,535.519348 735.905640,536.570007 723.771851,534.796814 
	C706.778687,532.313538 692.743835,525.437805 681.507690,513.547791 
	C671.636780,503.102509 664.807129,490.512207 665.979187,475.020660 
	C666.442078,468.902161 666.060364,462.697296 665.728271,456.549835 
	C665.540710,453.077484 666.534546,450.007294 667.640259,446.864227 
	C672.917053,431.863708 681.129700,418.838898 695.021545,410.629547 
	C703.161316,405.819366 712.078430,402.830933 721.883911,401.545685 
	C737.796692,399.459930 752.201111,402.402527 765.726868,410.360931 
	C782.277466,420.099213 793.311707,434.395691 797.623779,453.103394 
	C800.301514,464.720459 801.235779,476.697906 796.954895,488.776062 
M700.295105,446.925690 
	C698.010376,452.429108 694.633423,457.672577 694.232178,463.697845 
	C693.335754,477.158569 697.888977,489.131195 708.342773,497.370819 
	C717.273376,504.409851 727.878418,509.577423 740.034729,505.564056 
	C744.717346,504.018127 750.199951,504.947754 754.145935,501.335358 
	C759.886963,496.079620 765.022583,490.291199 768.538086,483.239990 
	C769.803650,480.701538 770.358276,478.274017 769.977356,475.209473 
	C769.367126,470.299530 769.513306,465.203278 770.070496,460.268311 
	C770.556824,455.961456 768.800293,452.598419 766.166748,450.063904 
	C764.384521,448.348602 762.779663,446.611572 761.212036,444.701172 
	C755.368835,437.580200 748.161560,431.357941 738.999939,430.611389 
	C724.000793,429.389130 710.329041,433.488953 700.295105,446.925690 
z"/>
<path fill="#000000" opacity="1.000000" stroke="none" 
	d="
M355.931763,498.835297 
	C349.862823,512.294739 339.613007,521.419739 327.571198,528.481750 
	C321.481384,532.053162 314.230438,532.852966 307.304474,534.471436 
	C298.217072,536.594971 289.705597,536.030762 280.768890,534.341125 
	C268.075623,531.941101 257.651031,525.908325 248.283493,517.263489 
	C240.207703,509.810760 236.111664,500.300201 232.154251,490.416595 
	C228.310043,480.815674 225.889648,471.383942 230.076141,461.374451 
	C231.772400,457.318817 230.277817,453.123474 231.228516,448.790924 
	C233.489563,438.486969 238.579132,430.388763 245.917831,423.447540 
	C248.817810,420.704651 250.424728,416.916992 253.802551,414.653931 
	C264.391296,407.559662 275.382812,402.213440 288.655945,401.585632 
	C295.035736,401.283875 301.088074,399.994843 307.693970,401.397980 
	C325.465546,405.172821 339.597961,414.206360 350.404816,428.586365 
	C358.872101,439.853180 362.686646,452.492645 362.404175,466.742218 
	C362.184509,477.823334 361.738586,488.604889 355.931763,498.835297 
M330.408722,485.420624 
	C330.610413,484.453461 330.811035,483.486053 331.013977,482.519135 
	C332.720703,474.387756 337.154877,466.701111 332.000458,457.884766 
	C327.103485,449.508850 323.706940,440.885590 314.328522,435.410217 
	C301.439545,427.885315 289.378510,429.912964 277.383209,435.483856 
	C257.628143,444.658508 252.180237,470.238434 263.293243,488.381989 
	C270.739563,500.539215 282.706299,503.977203 294.824860,508.090790 
	C298.609863,509.375549 300.336151,506.526855 303.014069,505.782196 
	C314.425385,502.609039 324.532654,497.338348 330.408722,485.420624 
z"/>
<path fill="#000000" opacity="1.000000" stroke="none" 
	d="
M339.987122,271.775452 
	C373.643921,258.613403 406.553009,270.652008 424.658142,298.084869 
	C431.483307,308.426361 434.133270,320.056152 434.386322,332.542267 
	C434.669861,346.533600 432.754333,359.653870 424.218811,371.156250 
	C415.177063,383.340820 404.677002,393.580841 389.694824,398.416077 
	C382.340546,400.789520 374.686707,401.208893 367.257080,401.894226 
	C354.963928,403.028168 343.579865,398.523468 333.040863,392.161072 
	C320.474548,384.574829 310.703644,374.366669 305.048920,360.782684 
	C303.085175,356.065308 301.471954,351.085968 301.822205,345.455811 
	C302.060089,341.631989 299.410370,337.750305 299.957397,333.406250 
	C302.056458,316.737671 305.605713,300.736816 317.551086,287.827850 
	C323.873749,280.995117 331.083923,275.569183 339.987122,271.775452 
M402.598663,351.955231 
	C404.581940,347.304199 405.769714,342.795105 405.933563,337.404388 
	C406.412079,321.658112 398.161469,311.162842 387.390350,301.662140 
	C385.917664,300.363129 384.525421,298.864838 382.487762,298.341003 
	C364.771301,293.786560 349.011993,295.558258 337.094666,311.479950 
	C328.886810,322.445740 328.441467,334.544037 331.584686,346.957977 
	C333.797638,355.697968 340.021973,362.011627 347.549011,366.656036 
	C358.332123,373.309479 369.476593,375.520782 381.677826,369.527313 
	C390.009796,365.434509 396.304138,359.368469 402.598663,351.955231 
z"/>
<path fill="#000000" opacity="1.000000" stroke="none" 
	d="
M587.177246,778.132202 
	C566.674927,777.021606 550.903931,767.501770 538.467529,752.497620 
	C526.544189,738.112549 523.068604,721.389893 525.390381,702.730652 
	C526.906555,690.545959 530.620422,679.434998 538.176941,670.380493 
	C550.142334,656.043091 564.548950,644.745178 584.834534,645.923828 
	C592.894531,646.392151 600.959961,644.923889 609.083130,647.331787 
	C615.736572,649.303955 622.075317,651.663452 627.578186,655.686829 
	C641.997681,666.229492 651.913147,679.904968 656.354431,697.510620 
	C661.675903,718.605286 654.847229,736.658875 643.044128,753.494202 
	C635.518921,764.227722 624.148315,770.109924 612.659546,775.353699 
	C604.829285,778.927612 596.132935,778.428284 587.177246,778.132202 
M564.304016,739.194397 
	C565.660156,740.155334 567.001160,741.138489 568.374878,742.073608 
	C582.206970,751.491150 597.307068,751.009277 610.719055,743.387817 
	C620.664917,737.736084 627.979919,728.143127 627.961670,714.649109 
	C627.946594,703.504517 625.525635,694.265747 617.833618,685.723328 
	C602.226196,668.390320 574.796265,671.936523 561.823608,687.214233 
	C555.428833,694.745178 554.482056,703.237000 553.852905,712.622986 
	C553.136230,723.314270 557.612122,731.104858 564.304016,739.194397 
z"/>
<path fill="#000000" opacity="1.000000" stroke="none" 
	d="
M433.999084,778.115479 
	C409.665649,778.334167 392.142700,767.012329 378.938843,748.015869 
	C376.704803,744.801758 375.014404,741.185974 373.278503,737.654724 
	C370.528351,732.060303 369.107391,726.463623 370.279419,719.890442 
	C371.339325,713.945984 371.148987,707.532593 370.174347,701.543335 
	C369.273956,696.010437 370.682098,691.328796 372.692261,686.617615 
	C376.088745,678.657104 381.264282,671.659363 386.662933,665.089905 
	C394.175812,655.947693 403.904572,650.057922 415.898010,647.429749 
	C427.461761,644.895874 438.989868,646.145386 450.438568,646.330261 
	C459.909912,646.483215 467.516937,652.948792 475.058899,658.522400 
	C490.220886,669.727539 498.740356,685.065796 501.767914,703.181641 
	C503.727112,714.904907 501.172882,726.385254 496.647064,737.650330 
	C492.062286,749.062256 484.635925,758.173889 475.382141,765.305054 
	C463.619324,774.369812 449.652222,778.730408 433.999084,778.115479 
M452.950836,678.495422 
	C443.196869,672.967102 433.070190,672.712769 422.750092,676.562012 
	C415.986572,679.084656 409.256989,682.167664 405.043396,688.181580 
	C392.687439,705.817017 394.292908,731.624329 415.553711,744.144043 
	C426.080170,750.342712 437.532410,750.474060 448.777130,747.044983 
	C454.002991,745.451355 459.787933,742.554749 462.555298,737.779907 
	C466.223877,731.449951 471.006226,726.000000 473.000793,718.057434 
	C474.755402,711.070190 469.972290,706.069824 471.739624,700.086792 
	C465.975891,692.768738 463.284271,682.825195 452.950836,678.495422 
z"/>
<path fill="#000000" opacity="1.000000" stroke="none" 
	d="
M257.681030,585.836182 
	C266.266052,568.815063 280.021057,558.136292 296.875610,550.992920 
	C298.235931,550.416382 299.748108,549.864563 301.187561,549.869995 
	C305.795593,549.887329 310.439392,550.481445 314.680908,547.935791 
	C315.065857,547.704712 315.670959,547.737061 316.157043,547.792969 
	C334.024414,549.846558 351.154022,553.053345 364.572418,567.079468 
	C374.807892,577.778564 381.204285,589.669861 384.643951,604.123291 
	C387.006653,614.051514 384.322571,622.660828 382.942657,631.915588 
	C381.274750,643.102234 374.496155,651.499878 368.117676,659.674438 
	C362.278687,667.157715 353.665955,672.196167 344.656219,676.078735 
	C334.469269,680.468506 324.101776,681.060364 313.101410,680.429626 
	C286.478638,678.903198 269.234467,664.373291 257.411835,642.026123 
	C255.091034,637.639343 255.289413,631.886169 253.787521,627.218445 
	C251.915817,621.401489 251.502014,615.796204 251.829376,610.087585 
	C252.301559,601.853394 253.914474,593.742249 257.681030,585.836182 
M308.861298,650.725769 
	C314.861053,652.632935 321.525116,653.060303 326.989197,651.296875 
	C335.960754,648.401306 344.762787,644.012390 349.669617,634.863831 
	C350.274384,633.736206 351.421661,632.884705 352.370300,631.959351 
	C354.704102,629.682983 355.978149,626.938477 356.693726,623.745117 
	C359.451447,611.438171 356.816956,601.503296 347.966309,591.564514 
	C336.200470,578.352112 321.048615,573.759521 303.950500,580.110596 
	C282.127136,588.216980 278.470490,609.625610 283.497345,627.538147 
	C286.642029,638.743896 296.032135,646.933533 308.861298,650.725769 
z"/>
<path fill="#000000" opacity="1.000000" stroke="none" 
	d="
M737.136841,554.708496 
	C756.358948,565.063660 769.626465,580.283447 773.456482,601.386475 
	C775.839966,614.519043 775.330688,628.045288 769.195496,641.273682 
	C761.599365,657.652283 749.486938,668.502686 734.189575,676.667175 
	C726.255798,680.901672 717.444519,680.307495 708.885437,680.376892 
	C700.785889,680.442627 692.573608,680.638428 684.716980,678.040344 
	C678.796082,676.082520 673.824219,672.353577 668.919434,668.687622 
	C658.521423,660.916138 651.520203,650.840576 645.873291,638.939392 
	C641.010132,628.689880 642.747375,618.070190 640.298157,607.835144 
	C639.499268,604.496338 641.109497,600.250305 642.505615,596.775940 
	C647.664978,583.935486 653.982971,571.502502 664.880676,562.682983 
	C673.948914,555.343994 684.070740,549.175415 696.752563,550.273621 
	C698.150757,550.394775 699.794373,549.893921 701.033875,549.178528 
	C703.663086,547.660950 706.620850,547.082275 709.242249,547.873657 
	C718.318298,550.613708 728.359070,549.313721 737.136841,554.708496 
M742.942200,600.439697 
	C740.719971,591.980896 734.584900,587.085388 727.625488,582.468323 
	C717.606689,575.821716 706.434692,576.686340 696.334290,579.206665 
	C681.192322,582.984863 669.127686,595.890686 669.982056,615.562195 
	C670.620422,630.259277 676.832153,641.206909 689.379822,647.477661 
	C701.693298,653.631226 714.986328,654.970032 727.836914,647.582520 
	C730.981323,645.774963 732.709900,642.610168 735.288086,640.268677 
	C747.508972,629.169800 748.598267,615.778625 742.942200,600.439697 
z"/>
<path fill="#000000" opacity="1.000000" stroke="none" 
	d="
M533.063110,303.965088 
	C522.743652,313.611420 506.146667,314.990967 494.329102,307.622589 
	C489.245728,304.453094 488.464203,299.083191 488.124237,294.204803 
	C487.773987,289.179504 488.193146,284.043640 487.962372,278.921722 
	C487.705444,273.220184 491.885284,269.314117 495.838257,266.234314 
	C511.607910,253.948181 530.912231,260.823334 536.976013,276.181946 
	C540.448608,284.977631 539.723328,295.211792 533.063110,303.965088 
z"/>
<path fill="#000000" opacity="1.000000" stroke="none" 
	d="
M685.773560,338.190765 
	C684.711243,340.893311 683.718811,343.169189 682.858887,345.494080 
	C679.899048,353.496216 672.887146,355.780548 665.696228,358.216125 
	C657.713989,360.919739 651.008911,359.221954 644.352905,354.411499 
	C636.248108,348.553986 632.636353,337.748962 635.020813,328.008636 
	C636.965332,320.065277 639.995667,312.902344 648.299316,311.156281 
	C655.732422,309.593323 663.461304,306.531036 671.341003,309.963165 
	C678.749023,313.189819 682.811768,319.326324 685.577698,326.434296 
	C686.984924,330.050476 686.217529,333.984375 685.773560,338.190765 
z"/>
<path fill="#000000" opacity="1.000000" stroke="none" 
	d="
M735.582642,494.155701 
	C716.698120,495.175507 707.420227,483.223267 706.503357,469.786255 
	C705.615723,456.776917 716.201843,440.680756 731.769775,441.784546 
	C747.018433,442.865753 759.991882,454.618835 757.792847,468.810699 
	C755.560791,483.216003 750.919678,489.431793 735.582642,494.155701 
z"/>
<path fill="#000000" opacity="1.000000" stroke="none" 
	d="
M319.996765,477.615662 
	C314.304840,490.497009 304.054932,495.909180 291.366730,493.862610 
	C277.068878,491.556458 266.489136,477.671997 270.361816,461.478333 
	C272.625305,452.013519 277.814575,444.344574 287.683167,443.115204 
	C303.145813,441.188995 315.492310,443.303101 320.589417,460.812469 
	C322.333984,466.805359 321.429138,471.800415 319.996765,477.615662 
z"/>
<path fill="#000000" opacity="1.000000" stroke="none" 
	d="
M352.113464,311.786041 
	C357.712463,308.174408 363.531647,310.385071 369.075348,310.092957 
	C373.281250,309.871338 377.574463,309.052704 381.737976,311.494080 
	C387.214478,314.705353 390.180969,319.187653 392.409149,325.124908 
	C394.796570,331.486328 393.700623,337.323059 391.894562,343.045685 
	C390.031464,348.948975 384.832672,352.570007 379.893066,355.955292 
	C370.305511,362.526031 360.780640,359.487488 351.885559,354.613647 
	C346.565155,351.698425 344.763672,346.047821 343.751312,339.980408 
	C342.883148,334.777283 341.442932,330.013428 343.470978,324.609436 
	C345.336121,319.639404 347.367859,315.121155 352.113464,311.786041 
z"/>
<path fill="#000000" opacity="1.000000" stroke="none" 
	d="
M566.114319,719.537537 
	C565.762512,712.219055 564.082153,705.072693 567.857239,698.619385 
	C572.916260,689.971191 580.247803,684.852722 590.714294,685.314697 
	C601.410828,685.786804 609.650818,690.164673 613.956787,700.381775 
	C619.573303,713.708252 611.056213,732.218506 596.997437,735.584778 
	C587.490234,737.861267 578.183533,735.961975 570.685059,728.753174 
	C568.154724,726.320496 567.681274,722.878845 566.114319,719.537537 
z"/>
<path fill="#000000" opacity="1.000000" stroke="none" 
	d="
M456.574951,724.571472 
	C454.190155,732.095337 447.287903,733.435486 441.732208,735.701050 
	C426.855438,741.767639 409.834106,728.753845 409.688416,712.662842 
	C409.581421,700.849304 413.653961,691.933655 424.383881,687.417664 
	C437.640625,681.838318 453.094757,687.304565 459.145386,699.590271 
	C463.051941,707.522400 461.714508,716.415588 456.574951,724.571472 
z"/>
<path fill="#000000" opacity="1.000000" stroke="none" 
	d="
M296.514954,625.226379 
	C295.512238,622.186707 294.647614,619.508545 293.847778,616.811157 
	C292.383575,611.873230 295.074860,607.514465 297.072723,603.769287 
	C300.968231,596.466858 304.984070,589.487732 315.891296,589.486633 
	C328.750702,589.485352 337.027985,592.638000 342.632629,603.685303 
	C347.494781,613.269165 344.164001,627.018188 335.404510,633.073181 
	C325.621796,639.835510 315.355927,641.140442 304.570679,635.485046 
	C300.481140,633.340637 298.309570,629.679138 296.514954,625.226379 
z"/>
<path fill="#000000" opacity="1.000000" stroke="none" 
	d="
M727.498779,630.309692 
	C714.864380,643.200195 688.991089,642.806213 682.965820,620.664612 
	C681.060913,613.664490 682.224060,606.937134 686.514832,600.899231 
	C687.466919,599.559509 688.233398,598.084839 689.218872,596.772583 
	C692.444641,592.476929 696.332336,589.393982 702.141541,589.784790 
	C703.785339,589.895386 705.512207,589.930847 707.098083,589.560242 
	C720.583679,586.409485 734.538574,599.816956 732.682739,613.921326 
	C731.931274,619.631958 729.807312,624.774414 727.498779,630.309692 
z"/>
</svg>