<svg xmlns="http://www.w3.org/2000/svg" xml:space="preserve" viewBox="0 0 1024 1024">
  <path d="M437 143c42-10 82 6 104 40 15 24 16 53-3 76-1 2-3 5-3 8-1 5 2 9 7 10h138c12 0 17 5 17 17v113l1 6c2 0 2-1 3-2 21-25 57-29 86-14 31 16 48 41 57 73 7 27 7 54-6 80a65 65 0 0 1-44 35c-19 4-44-10-50-29-2-4-1-9 2-12 4-3 8-5 13-3 12 5 21-6 19-18-2-13-14-24-28-25-24-2-39 17-43 36-3 15-2 30-2 45v42c0 2 0 4 2 6 7 11 9 22 6 34-1 4 0 5 3 6 19 6 28 25 29 42s-3 33-15 46c-2 1-2 3 0 5 17 19 11 57-19 73-14 8-28 9-43 3-3 0-4 0-6 2-29 29-65 43-105 49-21 3-42 4-63 3-30-1-59-7-85-23a75 75 0 0 1-36-46c-5-17-2-34 8-49 3-3 5-7 6-11 2-6-1-13-9-13H246c-14 0-19-5-19-18l-1-137c0-25 25-39 46-27 7 4 13 9 21 10 15 4 29 1 41-10 14-12 20-28 21-47 0-18-3-34-14-49-15-21-41-28-63-13-7 4-14 7-22 7-16 0-29-12-29-29V293c0-11 5-16 16-16h131l8-1c4-2 6-7 5-11 0-3-1-6-3-8-17-23-16-48-2-72 12-22 31-35 55-42m61 266c20-18 43-30 71-33 27-2 52 4 72 22 22 19 32 54 20 82-8 19-27 31-46 28-6-1-10-5-11-10s2-10 7-12c6-3 8-7 6-14l-4-7a28 28 0 0 0-39-2c-13 11-14 25-11 40s11 28 21 39c12 11 25 21 39 30 6 4 12 8 16 15 2 3 4 4 7 5 11 3 21 6 31 11 1 1 3 2 5 1l1-5v-55c0-21 7-38 22-53 22-22 63-24 85 3 16 19 18 50-5 66l-1 1h8c11-3 18-10 23-20 9-16 10-34 8-52-4-24-14-44-32-61-19-16-56-22-76 3l-3 4c-6 5-14 7-22 4-11-3-19-14-19-27V309c0-5-2-7-7-7H542c-13 0-24-7-29-19-7-14-3-27 6-39 11-16 10-32 1-47-23-38-81-42-110-9a45 45 0 0 0-5 57c2 1 3 4 4 6 14 25-6 52-32 51H260c-7 0-7 0-7 7v122c0 2 0 5 3 7s5 0 8-1l2-2c33-22 72-11 94 19 17 22 23 47 19 74-2 22-11 41-28 56a66 66 0 0 1-87 5c-6-4-10-1-11 6l-1 3v118c0 4 2 6 6 6h120c18 0 33 13 35 31 2 12-2 22-9 31a38 38 0 0 0 4 50c7 8 17 14 27 19 17 6 34 9 51 11 28 2 55 1 83-4 35-8 65-23 87-53 29-40 36-84 15-130-10-23-27-42-44-60-16-17-33-32-50-48-16-14-30-30-37-51-6-22-6-44 7-63a53 53 0 0 1 92 4l2-8c-2-17-9-31-24-41-12-7-25-9-39-9-30 1-54 14-72 37-19 24-27 51-25 82 2 21 8 40 18 58 13 21 31 38 49 54 14 12 27 24 37 40 11 18 17 37 13 58-8 41-47 73-91 79-7 1-13-4-14-10s2-12 9-14l4-1c20-5 37-13 50-27 20-20 23-46 9-69-6-9-14-18-22-26l-47-46c-31-35-44-76-39-122 4-33 17-61 41-85m198 377c-4 11-10 20-16 30 14 3 30-6 34-20 3-13-2-25-11-28l-7 18m9-87c3 14 3 27 1 40 0 2 0 4 2 5l3-2c10-11 13-30 6-43-3-5-7-9-13-11-1 4 1 7 1 11m-32-63 16 23c6-15-7-33-24-35 1 5 5 8 8 12z"/>
</svg>
