<?xml version="1.0" encoding="UTF-8"?>
<svg id="Layer_2" xmlns="http://www.w3.org/2000/svg" version="1.1" viewBox="0 0 782.05 943.44">
  <!-- Generator: Adobe Illustrator 29.5.1, SVG Export Plug-In . SVG Version: 2.1.0 Build 141)  -->
  <path d="M257.62,515.24c-68.81,0-133.51-26.8-182.17-75.45S0,326.43,0,257.62,26.8,124.11,75.45,75.45,188.81,0,257.62,0s133.51,26.8,182.17,75.45c48.66,48.66,75.46,113.35,75.46,182.17,0,85.72-42.45,165.57-113.57,213.61-42.61,28.79-92.43,44.01-144.05,44.01ZM257.62,49c-115.03,0-208.62,93.59-208.62,208.62s93.59,208.62,208.62,208.62c41.81,0,82.14-12.31,116.62-35.61,57.61-38.92,92-103.59,92-173.01,0-115.03-93.59-208.62-208.62-208.62Z"/>
  <path d="M642.02,836.5c-7.5,0-14.9-3.43-19.7-9.92l-21-28.34-242.13-326.89c-8.05-10.87-5.77-26.22,5.1-34.27,10.87-8.05,26.22-5.77,34.27,5.1l242.13,326.89,21,28.34c8.06,10.87,5.77,26.22-5.1,34.27-4.38,3.25-9.5,4.82-14.57,4.82Z"/>
  <path d="M754.96,228.62c-10.2,0-18.63-8.09-18.98-18.37-2.15-64.45-18.47-108.56-47.19-127.56-27.92-18.48-59.31-8.64-68.26-5.18-11.66,4.5-20.92,13.76-25.4,25.41-5.15,13.39-5.46,24.36-.95,33.52,8.26,16.78,30.39,23.5,30.61,23.57l-.11-.03-10.37,36.56c-3.88-1.1-38.4-11.66-54.04-42.94-9.51-19.01-9.71-40.65-.61-64.32,8.33-21.64,25.52-38.85,47.18-47.21,13.25-5.11,59.82-19.57,102.92,8.94,39.98,26.46,61.58,79.61,64.2,157.99.35,10.49-7.87,19.27-18.36,19.62-.21,0-.43.01-.65.01Z"/>
  <path d="M615.63,452.85c-9.19,0-17.87-2.72-24.95-7.99-10.59-7.87-16.75-20.79-16.9-35.45-.14-13.38,4.61-27.23,13.36-39h0c8.75-11.77,20.65-20.3,33.5-24.03,14.08-4.08,28.22-1.9,38.81,5.98,10.59,7.87,16.75,20.79,16.9,35.45.14,13.38-4.61,27.23-13.36,39-8.75,11.77-20.65,20.3-33.5,24.03-4.66,1.35-9.32,2.01-13.86,2.01ZM610.41,387.72c-10.07,13.54-9.36,28.72-2.43,33.87,6.93,5.15,21.67,1.46,31.74-12.08,10.07-13.54,9.36-28.72,2.43-33.87-6.93-5.15-21.67-1.46-31.74,12.08h0Z"/>
  <path d="M559.9,531.92c-6.28,0-12.4-1.37-17.96-4.12-11.83-5.85-20.2-17.46-22.97-31.85-2.53-13.14-.34-27.61,6.16-40.76h0c6.5-13.15,16.68-23.67,28.66-29.63,13.12-6.53,27.43-6.92,39.25-1.07,11.83,5.85,20.2,17.46,22.97,31.85,2.53,13.14.34,27.61-6.16,40.76-6.5,13.15-16.68,23.67-28.66,29.63-6.94,3.46-14.22,5.19-21.29,5.19ZM551.13,468.05c-7.48,15.12-4.07,29.93,3.67,33.76,4.97,2.46,10.58.41,13.47-1.04,6.25-3.11,11.93-9.13,15.59-16.53s5-15.57,3.68-22.42c-.61-3.18-2.38-8.88-7.35-11.34-7.74-3.83-21.58,2.44-29.06,17.57h0Z"/>
  <path d="M678.07,374.73c-8.45,0-16.45-2.51-23-7.38-9.82-7.3-15.5-19.25-15.58-32.78-.07-12.08,4.23-24.58,12.12-35.19s18.61-18.33,30.2-21.74c12.98-3.82,26.06-1.82,35.88,5.48,9.82,7.3,15.5,19.25,15.58,32.78.07,12.08-4.23,24.58-12.12,35.19-7.89,10.61-18.61,18.33-30.2,21.74-4.33,1.27-8.66,1.9-12.89,1.9ZM694.79,306.72c-1.6,0-3.14.35-4.21.66-5.11,1.5-10.24,5.33-14.08,10.5h0c-7.33,9.87-7.59,21.12-2.92,24.59,4.67,3.47,15.37-.02,22.71-9.88,3.84-5.17,6.03-11.19,6-16.51-.01-2.17-.43-6.12-3.08-8.08-1.29-.96-2.89-1.28-4.42-1.28ZM664.06,308.63h0,0Z"/>
  <path d="M728.96,286.29c-3.77,0-7.52-.91-10.83-3.63-12.45-10.25-18.27-28.52-15.21-47.69l2.05-12.84,1.38.07c7.79-20.15,25.2-32.69,43.54-29.77,21.97,3.52,35.75,27.71,31.36,55.07-2.04,12.78-11.96,24.1-27.91,31.85-5.08,2.47-10.66,4.5-15.71,5.72-2.78.67-5.73,1.22-8.67,1.22ZM736.56,260.27h0,0ZM728.69,257.29h0ZM731.44,240.36c-.86,6.33.19,11.93,2.06,15.77,2.03-.64,4.52-1.57,7.17-2.86,7.67-3.73,11.57-7.97,11.95-10.35,1.94-12.13-3.11-21.18-7.31-21.86-4.2-.67-11.81,6.36-13.75,18.48l-.13.81Z"/>
  <path d="M730.64,312.83l-33.81-23.19c14.52-21.17,16.86-27.6,16.95-27.86-.05.14-1.21,3.54-.25,8.46l40.23-7.89c1.5,7.63.71,15.72-23.12,50.48Z"/>
  <path d="M593.01,455.5c-2.73,0-5.49-.83-7.88-2.55-6.05-4.36-7.42-12.8-3.06-18.85l6.32-8.77c4.36-6.05,12.8-7.42,18.84-3.06,6.05,4.36,7.42,12.8,3.06,18.85l-6.32,8.77c-2.64,3.66-6.77,5.61-10.96,5.61ZM650.81,377.51c-4.34,0-8.61-2.09-11.21-5.97-4.16-6.19-2.52-14.58,3.67-18.74l13.53-9.1c6.19-4.16,14.58-2.52,18.74,3.67,4.16,6.19,2.52,14.58-3.67,18.74l-13.53,9.1c-2.31,1.55-4.93,2.3-7.52,2.3Z"/>
  <path d="M502.58,561.54l-23.65-29.74c10.06-8,48.08-37.25,49.69-38.5l23.17,30.12c-.39.3-39.38,30.31-49.21,38.12Z"/>
  <path d="M540.2,363.01c-7.77,0-15.06-4.8-17.86-12.52-3.58-9.86,1.51-20.76,11.38-24.34,66.81-24.25,107.72-119.49,112.44-130.99,8.64-37.54.99-48.48-1.58-50.95-5.16-4.95-16-3.35-19.39-2.4l.17-.05-11-36.37c3.44-1.04,34.24-9.56,56.18,11.08,18.07,17,22.2,46.88,12.28,88.82l-.3,1.27-.47,1.21c-1.93,4.99-48.27,122.5-135.37,154.11-2.14.78-4.33,1.15-6.48,1.15Z"/>
  <path d="M360.2,714.73c-6.55,0-12.6-1.9-17.71-5.7-10.18-7.57-14.23-20.9-11.09-36.58,2.2-11,7.87-23.05,15.97-33.94h0c20.57-27.67,48.38-38.17,66.12-24.98,17.74,13.19,15.69,42.85-4.88,70.52-8.1,10.89-18,19.79-27.9,25.07-7.03,3.74-14.01,5.62-20.51,5.62ZM380.79,657.51c-.97,1.13-1.95,2.35-2.93,3.67h0c-.98,1.32-1.87,2.61-2.67,3.86.97-1.13,1.95-2.35,2.93-3.67.98-1.32,1.87-2.61,2.67-3.86Z"/>
  <rect x="393.69" y="590.75" width="51.35" height="38" transform="translate(-297.69 426.74) rotate(-41.16)"/>
  <path d="M244.76,943.44c-6.79,0-13.36-3.65-16.78-10.06-4.3-8.05-2.2-17.81,4.51-23.47,1.89-2.59,11.59-18.04,23.89-75.66,17.8-83.38,80.98-150.71,83.66-153.54,7.22-7.61,19.25-7.93,26.86-.71,7.61,7.22,7.93,19.23.72,26.85h0c-.58.62-58.55,62.61-74.08,135.33-7.3,34.21-14.98,60.06-22.81,76.84-5.54,11.88-10.96,18.92-17.05,22.17-2.85,1.52-5.91,2.24-8.92,2.24ZM235.73,907.71s0,0,0,0h0ZM235.77,907.69s-.01,0-.02.01c0,0,.01,0,.02-.01ZM235.8,907.67s-.02,0-.02.01c0,0,.02,0,.02-.01ZM25.19,909.67c-4.97,0-9.93-1.94-13.66-5.79-7.3-7.54-7.1-19.57.44-26.87,27.22-26.33,47.3-57.33,59.36-78.7,9.97-17.66,16.49-37.36,19.37-58.56,7.32-53.75,37-107.98,85.85-156.85,36.29-36.3,70.27-56.98,71.7-57.84,8.98-5.42,20.66-2.53,26.08,6.45,5.42,8.98,2.53,20.66-6.45,26.08-2.01,1.23-124.52,76.99-139.53,187.28-3.53,25.99-11.59,50.26-23.93,72.12-13.29,23.56-35.54,57.83-66.03,87.33-3.69,3.57-8.45,5.34-13.21,5.34Z"/>
</svg>